<svg xmlns="http://www.w3.org/2000/svg" width="78.642" height="48.029" viewBox="0 0 78.642 48.029"><defs><style>.a,.b,.c,.d{fill:none;}.c,.d{stroke:#fff;}.d{stroke-linecap:round;}.e,.f{stroke:none;}.f{fill:#fff;}</style></defs><g transform="translate(-123 -85)"><rect class="a" width="72.472" height="48" transform="translate(123 85)"/><g transform="translate(146.529 101.235)"><g class="b" transform="translate(3.765 4.765)"><path class="e" d="M5.976,7.282A8.547,8.547,0,0,0,9.6,10.906L10.808,9.7a.437.437,0,0,1,.549-.11,5.743,5.743,0,0,0,1.976.329.55.55,0,0,1,.549.549v1.867a.59.59,0,0,1-.549.549A9.325,9.325,0,0,1,4,3.549.55.55,0,0,1,4.549,3H6.471a.55.55,0,0,1,.549.549,6.218,6.218,0,0,0,.329,1.976.676.676,0,0,1-.11.549Z"/><path class="f" d="M 4.549015998840332 2.999997138977051 C 4.219606399536133 2.999997138977051 3.999996185302734 3.274506568908691 3.999996185302734 3.549016952514648 C 3.999996185302734 8.709806442260742 8.17254638671875 12.88235664367676 13.33333587646484 12.88235664367676 C 13.6078462600708 12.88235664367676 13.88235664367676 12.60784721374512 13.88235664367676 12.33333683013916 L 13.88235664367676 10.46666717529297 C 13.88235664367676 10.13725662231445 13.6078462600708 9.917646408081055 13.33333587646484 9.917646408081055 C 12.61960601806641 9.917646408081055 11.96078681945801 9.807847023010254 11.35685634613037 9.588236808776855 C 11.29851150512695 9.549337387084961 11.2332763671875 9.531107902526855 11.1660327911377 9.531107902526855 C 11.04345512390137 9.531108856201172 10.9142017364502 9.591681480407715 10.80784606933594 9.698036193847656 L 9.599996566772461 10.90588760375977 C 8.062746047973633 10.08235740661621 6.745096206665039 8.819606781005859 5.976466178894043 7.282357215881348 L 7.239216804504395 6.074506759643555 C 7.349016189575195 5.909807205200195 7.403926849365234 5.690196990966797 7.349016189575195 5.525486946105957 C 7.129405975341797 4.866666793823242 7.019606590270996 4.207846641540527 7.019606590270996 3.549016952514648 C 7.019606590270996 3.274506568908691 6.799996376037598 2.999997138977051 6.470586776733398 2.999997138977051 L 4.549015998840332 2.999997138977051 M 4.549015998840332 1.999997138977051 L 6.470586776733398 1.999997138977051 C 7.324716567993164 1.999997138977051 8.019606590270996 2.694887161254883 8.019606590270996 3.549016952514648 C 8.019606590270996 4.09709644317627 8.113166809082031 4.65567684173584 8.297696113586426 5.209257125854492 C 8.448026657104492 5.660197257995605 8.363386154174805 6.19102668762207 8.071266174316406 6.629206657409668 L 8.010106086730957 6.72093677520752 L 7.930436134338379 6.797146797180176 L 7.232209205627441 7.465017318725586 C 7.780534744262695 8.308390617370605 8.539022445678711 9.058633804321289 9.441645622253418 9.650017738342285 L 10.10073661804199 8.990926742553711 C 10.39725685119629 8.694406509399414 10.77558708190918 8.531106948852539 11.16603660583496 8.531106948852539 C 11.37736225128174 8.531106948852539 11.58298683166504 8.579909324645996 11.76910400390625 8.673341751098633 C 12.24227714538574 8.835497856140137 12.7680549621582 8.917646408081055 13.33333587646484 8.917646408081055 C 14.18746662139893 8.917646408081055 14.88235664367676 9.612537384033203 14.88235664367676 10.46666717529297 L 14.88235664367676 12.33333683013916 C 14.88235664367676 13.1585168838501 14.15851593017578 13.88235664367676 13.33333587646484 13.88235664367676 C 10.57023620605469 13.88235664367676 7.974496841430664 12.80831718444824 6.024266242980957 10.85808753967285 C 4.074036598205566 8.907856941223145 2.999996185302734 6.312116622924805 2.999996185302734 3.549016952514648 C 2.999996185302734 2.694887161254883 3.694886207580566 1.999997138977051 4.549015998840332 1.999997138977051 Z"/></g><circle class="c" cx="12.706" cy="12.706" r="12.706"/><g class="c" transform="translate(2.824 2.824)"><circle class="e" cx="9.882" cy="9.882" r="9.882"/><circle class="a" cx="9.882" cy="9.882" r="10.382"/></g></g><path class="d" d="M-210.5,4951.289l12.309-16.109" transform="translate(376.441 -4848.641)"/><path class="d" d="M-232.764,4958.7l-7.13-7" transform="translate(383.674 -4854.913)"/><path class="d" d="M-239.594,4986.88l-17.927,10.721" transform="translate(388.859 -4865.259)"/><path class="d" d="M-202.7,4985.981l30.972,10.9" transform="translate(372.737 -4864.995)"/></g></svg>